<?xml version="1.0" encoding="UTF-8"?>
<svg id="Layer_1" data-name="Layer 1" xmlns="http://www.w3.org/2000/svg" viewBox="0 0 684.24 358.87">
  <defs>
    <style>
      .cls-1 {
        fill: #03d;
      }

      .cls-1, .cls-2 {
        stroke-width: 0px;
      }

      .cls-2 {
        fill: #000;
        fill-rule: evenodd;
      }
    </style>
  </defs>
  <g>
    <path class="cls-1" d="M175.79,329.78c0,8.25-3.27,12.29-10.27,12.29s-10.27-4.05-10.27-12.29v-84.78h-19.29v84c0,19.29,11.2,29.87,29.56,29.87s29.56-10.58,29.56-29.87v-84h-19.29v84.78Z"/>
    <path class="cls-1" d="M45.11,298.21c9.33-3.74,13.38-13.85,13.38-23.49,0-19.13-9.18-29.71-29.87-29.71H0v112.32h30.49c21.93,0,30.18-14,30.18-32.51,0-14.47-5.76-22.25-15.56-26.6ZM19.29,260.87h7.31c8.55,0,12.6,5.44,12.6,15.87,0,9.33-5.6,14.31-12.91,14.31h-7v-30.18ZM27.38,341.45h-8.09v-34.53h6.22c11.51,0,15.87,5.76,15.87,17.27s-3.73,17.27-14,17.27Z"/>
    <polygon class="cls-1" points="95.68 245 76.39 245 76.39 357.32 126.01 357.32 126.01 340.52 95.68 340.52 95.68 245"/>
    <polygon class="cls-1" points="666.82 245 666.82 311.52 640.47 245 623.05 245 623.05 357.32 640.47 357.32 640.47 290.8 666.82 357.32 684.24 357.32 684.24 245 666.82 245"/>
    <rect class="cls-1" x="585.37" y="245" width="19.29" height="112.32"/>
    <path class="cls-1" d="M455.02,278.13c0-23.96-11.04-33.13-32.67-33.13h-27.07v112.32h19.29v-46.05c3.33,0,7.24-.15,9.75-.44l13.68,46.49h19.82l-16.34-50.87c6.53-2.95,13.53-10.27,13.53-28.31ZM421.42,295.4h-6.85v-34.53h6.85c10.42,0,14.31,3.89,14.31,17.27s-3.89,17.27-14.31,17.27Z"/>
    <path class="cls-1" d="M539.55,243.45c-20.23,0-29.56,12.91-29.56,28.78v57.87c0,15.87,9.33,28.78,29.56,28.78,0,0,10.64-.45,19.16-6.9l10.18,6.9v-58.31h-31.36v15.25h13.88v13.66s0,.25,0,.66v.02c0,12.54-10.69,11.88-10.69,11.88-.37.02-.76.04-1.16.04-7.78,0-10.27-4.05-10.27-12.44v-56.94c0-8.4,2.49-12.45,10.27-12.45s10.27,4.05,10.27,12.45v8.71h19.29v-9.18c0-15.87-9.33-28.78-29.56-28.78Z"/>
    <path class="cls-1" d="M348.66,243.45c-20.22,0-29.56,12.91-29.56,28.78v57.87c0,15.87,9.33,28.78,29.56,28.78s29.56-12.91,29.56-28.78v-57.87c0-15.87-9.34-28.78-29.56-28.78ZM358.92,329.63c0,8.4-2.49,12.44-10.27,12.44s-10.27-4.05-10.27-12.44v-56.94c0-8.4,2.49-12.45,10.27-12.45s10.27,4.05,10.27,12.45v56.94Z"/>
    <rect class="cls-1" x="472.53" y="245" width="19.29" height="112.32"/>
    <polygon class="cls-1" points="232.87 307.54 257.76 307.54 257.76 290.74 232.87 290.74 232.87 261.8 265.22 261.8 265.22 245 213.57 245 213.57 357.32 267.4 357.32 267.4 340.52 232.87 340.52 232.87 307.54"/>
  </g>
  <path class="cls-2" d="M672.36,63.6s0-.05,0-.07l-.18-1.28c-.02-.11-.14-.17-.24-.11,0,0-.01,0-.02.01l-2.03.83c-.1.04-.19-.08-.12-.17l1.19-1.3c.09-.1-.03-.24-.14-.17l-.49.29c-.09.05-.2-.06-.13-.14l1.16-1.58c.09-.12-.03-.28-.17-.22-.8.31-2.44.95-2.55.91-.19-.07,1.78-1.36,2.87-2.1.09-.06.13-.16.12-.26,0-.06-.07-.1-.13-.1l-1.38.21c-.26.04-.41-.29-.2-.46l1.14-.93c.23-.19.35-.48.31-.78l-.65-5.03-.34-2.26c-.08-.5-.41-.91-.89-1.08-.83-.3-1.69-.58-2.42-.8-.27-.08-.21-.48.08-.47l2.44.04c.23,0,.4-.2.37-.42l-.33-2.17c-.18-1.21-.55-2.38-1.08-3.48-.58-1.2-1.27-2.61-1.28-2.64-.03,0-.19-.22-.3-.45-.14-.3-.45-.48-.78-.46l-2.19.18c-.24.02-.43-.2-.37-.44.07-.29-.16-.56-.45-.54-.37.03-.9.04-1.61-.03-.27-.03-.29-.42-.02-.47,1.39-.23,2.91-.68,4.05-1.06.02-.02.06-.04.07-.07.02-.05.04-.09.06-.14-.16.02-.31,0-.46,0,0,0-4.53-7.3-4.72-7.49l-3.81-3.69c-.15-.14-.31-.27-.48-.37l-2.45-1.47c-.41-.24-.91-.28-1.34-.07-.94.44-1.97,1.06-2.96,1.95-.21.19-.52-.04-.41-.3.48-1.13.72-2.16.82-3.02.07-.62-.2-1.23-.7-1.6,0,0,0,0,0-.01,0,0,0,0,0,0l-1.88-1.37-5.15-3.01c-.09-.05-.18-.1-.27-.13l-.27-.11c-.47-.19-1-.15-1.43.1-1.5.86-3.19,1.85-4.69,2.81-.15.1-.33-.07-.24-.23.55-.97,1.07-2.04,1.51-3.04.08-.19-.14-.36-.3-.23-1.5,1.23-3.1,2.73-3.94,3.53-.11.11-.28-.02-.22-.16l2.38-4.68c.12-.24-.04-.53-.31-.56l-2.65-.27c-.15-.02-.3-.05-.45-.11l-1.06-.45c-.15-.06-.32-.05-.47.04-.14.08-.35.14-.65.16-1.92.15-2.94,3.92-3.61,5.76-.17.47-.44.89-.79,1.24-1.5,1.53-4.85,6.68-7.15,10.32-.26.4-.88.09-.7-.36l7.04-17.56c.38-.95-.12-2.03-1.09-2.35l-.33-.11c-.39-.13-.81-.1-1.18.08l-.34.17c-.35.17-.75.21-1.13.1l-1.13-.33c-.21-.06-.44,0-.58.17-5.3,6.28-12.93,21.38-17.71,38.67-.09.31-.55.21-.5-.11,3.43-21.28,7.45-39.05,8.2-42.31.03-.12-.12-.22-.22-.14-.06.04-.12.09-.17.14-.1.08-.24,0-.23-.12h0c0-.14-.16-.21-.25-.11-.08.09-.15.19-.23.29h0c-2.57,5.55-4.4,14.09-5.36,17.7-1.34,5.06,1.68-13.02,2.53-18.04.05-.31-.14-.6-.45-.67h0s-.03,0-.04-.01l-.18-.05c-.3-.09-.62.06-.72.36-.44,1.19-.99,2.64-1.69,4.42.15-1.26.15-2.4.08-3.35-.09-1.18-.98-2.15-2.15-2.34l-.89-.14c-.41-.07-.79.19-.89.59-1.16,4.73-3.41,13.73-7.5,29.7-.18.7-1.22.52-1.15-.2,1.56-17.37-.2-27.82-.88-31.04-.1-.46-.46-.82-.92-.93h-.02c-.34-.08-.7-.1-1.05-.05-.51.07-1.27.17-1.71.23-.21.03-.37.2-.39.4-.29,3.69-1.03,11.52-2.78,22.68-.05.31-.5.26-.49-.05.41-7.77.34-17.09.28-21.51,0-.63-.56-1.12-1.19-1.04l-6.92,1.75c-.57.14-1.08.49-1.39.99-.02.03-.04.06-.05.09-4.71,8.33-8.44,25.48-11.5,39.9-.07.31-.54.23-.49-.09,3.31-22.66,6.94-33.6,8.52-37.59.16-.4-.26-.78-.64-.59l-3.12,1.58-1.65,1.09c-1.02.68-1.82,1.63-2.3,2.76-3.27,7.65-5.61,17.36-7.63,25.54-.16.64-1.12.46-1.03-.2,1.84-13.54,4.63-21.2,5.97-24.28.05-.12-.04-.25-.17-.25h0s-.08.01-.12.04l-6.13,5.13-8.58,8.82c-.73.75-1.33,1.59-1.81,2.52l-1.65,3.21c-.15.29-.58.17-.57-.15h0c0-.07,0-.13-.01-.19-.04-.28-.08-.56-.13-.84-.03-.19-.03-.38,0-.57.2-1.31.68-2.66,1.01-3.96.06-.23.14-.46.23-.69.38-.9.93-2.21,1.22-2.9,0-.02.01-.04.01-.05-.29.15-.59.32-.92.51-.42.7-.79,1.5-1.12,2.33-.04.11-.16.15-.25.07-.05-.04-.04-.08-.03-.12.11-.49.2-1.02.32-1.56,0,0,0,0,0,0-.44.31-.89.67-1.34,1.08-.27.87-.52,1.78-.81,2.49-.07.17-.32.11-.31-.07.02-.44.06-.95.11-1.43h0c-.61.66-1.22,1.41-1.77,2.27-.49,1.65-.81,3.38-1.3,4.96,0,.02-.01.03-.02.05-.51.92-1.03,1.83-1.41,2.81-.04.09-.07.18-.11.27-.93,3.93-2.13,7.87-2.97,11.81-.3,1.43-.68,2.83-1.01,4.23-.04.16-.14.31-.28.4-.09.05-.16.13-.22.21-.09.14-.16.28-.23.42-.05.1-.11.19-.18.27-.31.35-.59.73-.8,1.16-.07.14-.14.28-.21.43-.23.48-.89.51-1.16.05l-1.47-2.49c-.45-.76-1.17-1.32-2.01-1.56-.67-.2-1.29-.54-1.81-1l-.07-.06c-.19-.17-.49-.03-.49.22,0,.95-.26,1.88-.76,2.68l-1.34,2.18c-.06.1-.21.03-.17-.08.06-.18-.19-.29-.28-.12l-1.31,2.46c-.07.02-.14.07-.18.16l-.34.8-.13.24.18-1.19c.02-.13-.17-.18-.22-.05l-2.79,8.44c-.32.15-.54-.2-.41-.77.23-1.09.46-2.19.68-3.28.08-.41-.38-.7-.71-.44l-.03.02c-1.06.83-1.87,1.94-2.33,3.2-.15.41-.29.83-.43,1.25-.09.26-.42.34-.61.14,0,0-.23-.52-.59-.25-.1.08-.17.19-.19.32-.28,1.46-.44,1.49-.93,3.14-.06.22-.65,1.17-.73,1.39-.25.68-.48,1.57-.64,2.26-.13.61-.28,1.21-.44,1.81-.07.27-.46.19-.43-.08,0-.06.01-.12.02-.18l.1-.42s.13-.47-.07-.53-.38.24-.38.24l-.26.31s-.03.03-.04.04c-.77.82-3.21,4.58-4.41,6.6-.07.11-.19.18-.32.18-.24,0-.42-.23-.36-.46.03-.11.05-.22.08-.33.73-3.28,1.52-6.47,2.24-9.74.2-.91.68-1.46.9-2.73.43-2.55,3.11-9.8,2.99-9.63,2.09-6.6,2.29-9.02,1.69-9.42,0-.01-.01-.02-.02-.04,0,0,0,.01-.02.02-.71-.38-2.42,1.78-3.53,3.29-4.84,9.91-13.64,18-27.08,26.52,0,0,0,0,0,0,0,0,0,0,0,.01-.21.13-.41.27-.63.4,0,0,0,0,0-.01-.02.01-.03.03-.04.04-2,1.25-4.09,2.52-6.29,3.8-10.85,6.32-22.19,12.03-22.38,12.12-5.54,2.86-9.4,6.38-10.23,7.8-.02.04-.15.04-.16-.05,0-.07-.03-.14-.02-.15,0-.02,0-.05,0-.07,0,0-.13-.08-.18-.02-.5.65-1.48,2.65-1.52,2.74-.07.13-.13.26-.2.38-1.76,2.99-2.94,6.15-4.61,9.15-.66,1.18-.92,2.67-1.58,3.84-1.04,1.86-1.69,3.92-2.72,5.75-2.31,4.13-4.04,8.55-5.75,12.92-1.18,3.02-2.43,6.03-3.18,9.22-.22.56-.44,1.13-.66,1.69-.6,2.61-1.4,5.19-2.13,7.77-.03.1-.12.16-.22.16-.14,0-.25-.13-.22-.27.23-1.15.47-2.3.69-3.45,1.1-5.56,2.24-11,3.48-16.47.52-2.29,1.61-4.51,2.15-6.78.45-1.89,1.24-3.61,1.94-5.4.28-.78.55-1.57.83-2.35,1.24-2.23,2.21-4.62,3.54-6.81.94-1.55,2.03-3,3.11-4.45.67-1.67,1.11-3.07,1.4-4.23.1-.4-.37-.69-.68-.42h-.01s-.01-.02-.02-.03c-.9.57-1.66,1.25-2.37,1.97-.74.58-1.52,1.17-2.38,1.81,0-.01-.01-.03-.02-.04-.26.19-.51.41-.77.61-3.49,2.52-7.93,5.44-13.42,8.5-3.55,1.98-6.58,4.27-9.2,6.7,0,0,0-.01,0-.02-.26.27-.53.51-.8.76-.03.03-.06.05-.08.08-1.59,1.48-3.3,2.79-4.55,4.58-2.17,3.12-4.19,6.31-6.06,9.56-.77,1.34-1.35,2.83-2.12,4.2-.13.41-.26.82-.39,1.23-.67,1.19-1.03,2.45-1.52,3.7-.22.48-.43.97-.65,1.45-.73,3.09-1.91,6.09-2.6,9.2-1.47,6.6-2.73,13.25-4.08,19.89-.71,3.5-1.98,6.87-2.8,10.33-.34,1.45-1.33,3.79-2.07,5.11-.35.89-.69,1.78-1.04,2.67-1.32,2.36-2.6,4.8-4.12,7.07-.49.72-1.16,1.55-1.73,2.16-.47.5-1.14.78-1.47,1.31-.02.03-.05.06-.08.07h0c-.14.07-.29-.06-.26-.21.53-2.29,2.17-4.31,2.7-6.58.9-3.85,2.03-7.63,2.58-11.64.76-5.59.6-11.3.88-17.08.48-9.89,1.01-19.82,2.91-29.17.81-3.99,2.14-8.3,4.12-11.85.67-1.2,1-2.68,1.67-3.88.95-1.68,1.73-3.39,2.66-5.07.09-.16.16-.33.22-.51.08-.24.16-.49.24-.73.05-.15.11-.28.18-.42.09-.17.19-.41.29-.57.33-.56-.36-.96-.74-.72-.07.05-.56.73-.86.8-.26.07-.57-.11-.57-.12,0,0-2.08,2.41-2.6,3.09-.13.17-.23.36-.3.56-.08.21-.16.41-.24.62-.03.07-.07.14-.12.2-.68.86-1.54,1.4-2.15,2.28-.91,1.3-1.64,2.73-2.41,4.07-.05.08-.13.13-.22.13-.17,0-.28-.17-.22-.32.04-.11.07-.22.1-.34.13-.57.21-1.16.36-1.71.07-.24-.24-.41-.4-.21-.06.08-.12.15-.18.23-.24.31-.53.57-.87.75-1.39.73-2.94,4.03-3.55,4.98-.4.63-1.09,1.06-1.55,1.62l-1.45,3.58s-.03.05-.04.07l-.33.38s-.1.08-.16.09c-.14.02-.26-.08-.28-.21l-.05-.41s0-.06,0-.09l.85-3.78c.05-.23-.17-.43-.39-.34l-.2.07s-7.22,2.36-12.29,5.98c-.17.12-.39-.1-.25-.27.45-.58.96-1.25,1.1-1.56,0-.01.01-.03.03-.03,0,0,0,0,.01-.01.08-.08-.03-.21-.12-.15-.83.44-1.63.99-2.39,1.62l-5.35,3.58c-.22-.08-.48-.05-.68.14l-.21.2c-.6.63-1.16,1.46-1.78,2.15-.37.42-.83.75-1.34.98h-.01c-.49.22-.93.54-1.29.93l-5.13,5.58s0,0,0,0c-1.66,2.41-2.93,5.05-4.34,7.57-.62,1.1-1.19,2.47-1.66,3.65-.1.3-.2.6-.3.9-.07.21-.25.37-.47.42h-.01c-.43.1-.82-.25-.78-.68.05-.61.11-1.21.24-1.81.46-2.11,1.69-4.47,3.34-6.72.16-.22.3-.45.42-.7l.69-1.42c.06-.12-.02-.25-.15-.27-.33-.04-.71-.04-1.11-.02-.43.03-.86.15-1.24.35h0s-1.75.96-1.75.96c-.81.44-1.54,1.03-2.13,1.74-.99,1.21-1.8,2.49-2.56,3.85-.74,1.33-1.01,3.03-1.84,4.31-.26.41-.68.61-.96,1.01-.47.67-.82,1.52-1.25,2.19-.45.69-1.11,1.15-1.53,1.84-.66,1.09-.99,2.41-1.61,3.5-2.48,4.45-3.71,9.93-4.46,15.04-.12.82,0,1.56-.12,2.39-.13.99-.34,2.18-.35,3.19-.02,6.55.27,13.42.27,19.95,0,1.53,0,3.46-.16,5.28-.04.52-.8.49-.82-.03,0-.01,0-.02,0-.04-.07-2.65-.76-5.45-1.13-8.14-.24-1.73-.85-3.15-1.1-4.88-.48-3.37-1.21-6.83-1.66-10.12-.29-2.13-.85-3.99-.9-6.02-.2-8.39.52-16.51,1.2-24.57.12-1.45.06-3,.03-4.45-.1-.77-.21-1.54-.32-2.31-.01-.94.19-2.07.19-3,0-1.12-.41-2.94-.15-3.97,0-.04,0-.08,0-.11h0c-.06-.14-.25-.14-.31,0-.33.74-.75,2.07-1.03,3.18-.12.88-.26,1.97-.27,2-.06.31-.32.42-.43.3-.04-.05-.09-.42-.13-.78-.03-.2-.29-.26-.4-.09-.44.7-.82,1.44-1.22,2.14-.03.09-.05.19-.08.28-.09.33-.32.59-.63.73h0c-.54.54-.77,1.34-1.13,1.94-.04.07-.09.12-.16.17-.15.1-.3.2-.45.29-.15.18-.41.62-.67,1.13-.06.12-.22.17-.34.11h0c-.12-.06-.18-.21-.13-.33.29-.7.62-1.38.77-2.03.28-1.21.64-2.42.85-3.64.09-.55,0-1.14.16-1.66.01-.04.01-.08,0-.11h0c-.05-.11-.19-.13-.27-.04-1.37,1.77-2.07,4.01-3.1,5.9-.39.72-.97,1.35-1.16,2.14-.18.75-.67,2.92-1.03,3.49-.44.7-1.2,1.11-1.67,1.79-.77,1.11-1.5,2.34-2.18,3.53-2.72,4.75-3.85,10.18-4.64,15.7-.29,2.05-.4,4.02-.4,6.24,0,.68-.19,1.42.04,2.2-.28-.24-.33-1.04-.41-1.45-.26-1.47-.85-2.62-1.09-4.07-.67-4.02-1.6-8.12-2.24-11.97-.13-.79-.51-.98-.84-1.38-.26-.32-.42-1.67-.46-2.64,0-.19-.16-.33-.35-.33-.16,0-.29.11-.34.26-.13.47-.19.98-.29,1.46-.05.25-.42.23-.44-.02,0-.01,0-.02,0-.03,0-.08-.04-.16-.11-.21-.2-.15-.44-.08-.53.11-.4.81-.71,1.75-.83,2.54-.05.36,0,.75.04,1.14.07.59-.11,1.19-.5,1.65-.04.05-.08.1-.12.14-.06,0-.07,0-.13-.02h0c-.11-.24-.43-.28-.58-.07-.16.22-.23.46-.27.74-.06,0-.06,0-.12.01-.32-.83-.51-1.63-.75-2.45-.14-.47-.83-.36-.81.13.02.74.11,1.51.11,2.2,0,2.58.13,5.3.13,7.99,0,5.45.44,11.06.57,16.67.09,3.6,1,7.07,1.34,10.73.26,2.85.72,5.67,1.01,8.66.1,1.03.05,2.24.41,3.32-.41-.34-.99-2.93-1.12-3.59-.93-2.82-1.86-5.64-2.79-8.46-.55-1.09-1.38-3.17-1.64-4.53-.26-1.3-1.13-2.46-1.35-3.6-.24-.56-.49-1.11-.73-1.66-.57-1.31-1.55-3.29-1.83-4.68-.36-.82-.72-1.63-1.08-2.45-.54-2.77-2.49-5.25-3.01-7.89-.22-1.12-1.54-3.76-2.12-4.55-.78-1.68-1.56-3.36-2.33-5.04-.4-.54-.63-1.34-1.1-1.97-.18-.24-.37-.47-.55-.71-.33-.43-1.01-.22-1.04.32-.05.97.01,2.16.13,2.92.02.14-.01.28-.1.39-.08.1-.13.22-.13.34-.08,1.77-.18,3.61-.21,5.42,0,.4-.54.54-.74.18-.16-.29-.33-.6-.46-.87-.15-.3-.59-.28-.7.04-.48,1.29-.14,3.25-.4,4.68-.21,1.16-.75,2.34-.75,3.6,0,2.39.68,4.89,1.07,7.46.22.76.43,1.52.65,2.28.39,2.59,1.76,5.38,2.28,8.1.33.83.65,1.66.98,2.49.27,1.54,1.35,3.13,1.63,4.77.22,1.25,1.1,2.46,1.34,3.84.18,1.03.98,2.05,1.18,3.21.16.91,1.05,2.03,1.24,3.07.3,1.72,1.32,3.41,1.91,5.07.08.22-.08.47-.32.46-.01,0-.03,0-.04,0-.04,0-.07,0-.1.01-1.03.3-1.92-1.36-2.57-2.01-2.2-2.2-4.29-4.64-6.6-6.78-2.47-2.29-5.06-4.7-7.82-6.36-1-.42-2-.83-3-1.25-.22-.06-.43.04-.62-.08-.94-.56-1.65-1.35-2.59-1.9-.63-.19-1.26-.38-1.88-.57-1.24-.71-2.45-2.15-3.85-2.39-.49-.08-.92.11-1.39.03-.99-.17-1.99-.73-2.97-.91-.26-.05-.53-.03-.8,0-.43.03-.73.43-.68.86,0,.01,0,.02,0,.04.06,1.84,1.18,1.77,2.31,2.6.4.29.59.75,1.01.96.01.03.03.06.04.1h0c-.33.02-.5.39-.3.65,2.57,3.29,5.8,5.66,8.46,8.6,1.06,1.17,2.23,2.52,3.07,3.78.5,1.14,1,2.28,1.51,3.42.6.81,1.25,1.75,1.84,2.58.48.67-.03,1.1.11,1.59.11.39.54.7.76,1.18-1.12.38-2.39.64-3.48.83-1.91.33-3.68,1.06-5.47,1.36-3.3.55-6.48,1.86-9.68,2.4-1.97.33-3.56,1.16-5.53,1.5-6.53,1.14-13.12,3.56-19.64,4.68-.92.16-1.47.55-2.38.7-3.86.65-7.65,2.12-11.61,2.78-3.55.59-7.03,1.88-10.69,2.49-8.8,1.47-17.55,4.21-26.29,5.74-.75.13-1.15.47-1.85.58-3.38.53-6.9,1.74-10.3,2.32-1,.29-2,.57-3.01.86-5.35.9-10.85,3.27-16.32,4.27-2.12.39-4.09,1.38-6.11,1.76-.91.32-1.82.65-2.73.97-3.57.72-4.81,2.53-4.42,5.33.68,4.89,5.45,3.21,8.51,2.9,5.62-.56,11.38-1.61,17.14-2.41,2.8-.39,5.3-1.3,8.12-1.71,7.57-1.09,15.16-3.42,22.8-4.67,2.9-.48,5.67-1.52,8.46-1.98.79-.23,1.59-.46,2.38-.69,3.04-.51,6.28-1.62,9.33-2.13,1.21-.34,2.42-.68,3.64-1.02,4.19-.73,8.49-2.32,12.68-3.01,1.46-.41,2.91-.81,4.36-1.22,4.7-.82,9.52-2.65,14.23-3.46,1.7-.47,3.39-.95,5.09-1.42,6.69-1.17,13.54-4.03,20.24-5.18,3.19-.55,7.02-2.56,9.92-2.41.34.02.63.27.68.61,0,0,0,0,0,.01.02.16.09.31.21.42.12.1.23.12.44.16.01.03.35-.03.37.14.08.67.33,1.5.92,1.74h0c.07.03.14-.01.15-.08.05-.32.18-.6.23-.9.05-.38-.08-1.25-.1-1.3-.01-.03,0-.06.03-.07,0,0,0,0,0,0,.03-.01.06,0,.07.03.05.11.15.21.27.22.27.03.32-.01.36-.07.07-.1.22-.08.27.03.32.8.78,2.11,1.2,2.59.27.32.37.7.41.78,0,0,0,0,0,0,.01.03.05.05.09.03,0,0,0,0,0,0,.02,0,.04-.03.04-.06.1-1.05-.08-2.32-.45-3.6-.05-.17.05-.34.22-.38h0c.11-.03.22,0,.29.09.2.22.36.48.47.77.3.81.59,1.61.89,2.42.32,1.86.74,3.79,1.02,5.5.17,1.04.76.97.86,1.96.09.9-.1,2.07-.1,2.96,0,.75.22,1.48-.02,2.14.04.03.03.02.07.05.15-.12.26-.24.35-.37.1-.15.31-.16.42-.02,0,0,0,.01.01.02.13.17.17.38.13.59-.21,1,.26,2.15.13,3.2-.02.16.2.24.29.11.35-.52.52-1.06.76-1.64-.01-.03-.03-.06-.04-.1.03-.01.07-.03.1-.04.28.56.41,2.45.31,3.41-.02.19.21.31.35.18.55-.48.74-1.18.83-1.79,0,0,0,0,0,0,.05-.02.11.02.11.07,0,.08-.03.14-.04.22-.07.3.3.51.52.29.71-.7.69-1.54,1.13-2.33.03-.05.03-.12,0-.18h0c-.01-.09.02-.08.06-.04.08.09.23.1.31,0,1.09-1.27,1.33-4.15,1.55-5.71.04-.27,0-.53-.02-.78-.02-.28.08-.56.26-.77.05-.05.09-.11.14-.16.08-.09.14-.2.18-.31.15-.43.18-.92.29-1.37.15-.63.55-1.3.67-1.93.5-2.81-.11-7.73-1.22-11.19-.05-.15.04-.3.18-.35,0,0,0,0,0,0,.14-.04.28.03.33.16.39.89.78,1.77,1.17,2.66,1.44,1.96,2.18,4.3,3.62,6.11,2.2,2.74,4.08,5.84,6.27,8.67.81,1.04,1.3,2.32,2.04,3.3.29.57.58,1.15.87,1.72,1.64,2.2,2.68,5.21,4.32,7.43.35.7.7,1.4,1.04,2.11.97,1.3,1.99,2.42,2.95,3.53.24.28.7.15.77-.21.02-.1.04-.2.05-.31.04-.02.08-.02.13-.02.16,0,.27-.15.24-.3-.02-.06-.02-.12,0-.18h0c-.03-.06.05-.12.1-.08.56.41.92,1.24,1.44,1.73.66.63,1.44,1.05,2.19,1.48.28.17.61-.13.47-.43-.88-1.88-1.92-4.09-2.32-6.1-.07-.38-.5-.86-.57-1.04-.33-.76-.81-2.09-1-3.06-.37-1.87-2.16-3.37-2.35-4.8-.27-2.05-1.23-4.65-2.69-6.63-.43-.58-.57-1.46-.96-1.99-.08-.1.04-.23.16-.17.47.26.91.66,1.39.85.57.22,1.2.27,1.81.39.32.06.51-.35.25-.55-.68-.51-1.46-.9-2.08-1.46-.82-.75-1.96-1.7-2.6-2.47-.17-.39-.34-.78-.52-1.17-.16-.2-.3-.42-.46-.64-.06-.08-.02-.2.08-.23h0c.06-.02.12,0,.16.04.29.34.59.67.88,1.01,2.44,2.27,5.1,3.87,7.77,5.45.92.54,3.94,2.54,4.81,1.38.57.34,1.54.45,2.02-.19.6.39,1.25.3,1.89.57.52.22.94.6,1.44.88.15.08.31.15.49.21.89.3,1.5-.9.73-1.44,0,0,0,0-.01,0-1.26-.85-2.78-1.43-4.05-2.3-.22-.15-.43-.32-.64-.5-.32-.27-.3-.76.02-1.03h0c.13-.11.29-.16.46-.16.2.01.41.03.62.08.76.18,2.37,1.12,3.1,1.54,1.89,1.07,4.02,1.94,6.18,2.31,1.38.24,5.18-.62,7.8-1.3.44-.11.87-.28,1.28-.48l.06-.03c.3-.15,1.44-.95,2.56-1.23.69-.18.41-1.09-.43-.95-.03,0-.07.01-.1.01-3.59.1-5.41-.69-8.28-2.44-.41-.25-.87-.51-1.33-.79-.64-.63-2.02-1.87-2.58-2.36,0,0,0,0,0,0l-4.15-4.47h.08c-1.48-1.75-2.84-3.83-4.34-5.74-.39-.5-.85-1.38-1.33-2.25-.03-.05-.03-.12,0-.18h0c.06-.14.24-.15.33-.04,2.14,2.78,4.44,5.43,6.78,7.62.41.38.78.8,1.16,1.22l4.35,3.75c10.03,7.03,30.07,3.29,30.07,3.29,0,0,8.15-1.09,8.31-1.24.16-.03.33-.05.49-.08.24,0,.49,0,.74-.01.55-.01.71-.76.21-1l-.04-.02c-.33-.16-.68-.29-1.03-.39-1.69-.48-3.19-.99-4.41-1.47-.67-.23-1.33-.47-2-.78-5.39-2.47-10.47-5.44-15.16-9.78-2.08-1.92-3.93-4.2-5.91-6.27-.19-.2-.42-.45-.67-.73-.19-.21.11-.5.32-.31,0,0,.01.01.02.02,1.78,1.65,3.63,3.41,5.32,4.99,6.59,6.16,13.96,10.78,20.14,12.26,1.15.27,4.4,1.44,6.65,2.17,1.06.34,2.2.38,3.29.16.09-.02.18-.03.27-.05,1.15-.16,2.21-.02,3.25-.03.61-.11,1.22-.23,1.83-.34.19-.13.18-.11.25-.23.05-.08-.06-.16-.21-.23-.18-.07-.21-.3-.07-.43,0,0,0,0,0,0,.34-.31.76-.52,1.21-.63,1.97-.48,3.89-.46,5.75-.43l1.47-.24c.32-.05.3-.53-.02-.55,0,0,0,0,0,0-.07-.04-.04-.15.04-.15,1.01.03,1.98.04,3-.02.55-.03,1.11-.24,1.6-.19.07,0,.13,0,.19-.03h0c-.09-.09-.12-.13-.15-.15-.09-.06-.06-.2.05-.22,1.06-.24,2.01-.08,3-.2.43-.05.71-.29,1.06-.23.16-.07.35-.18.55-.29.25-.15.15-.53-.14-.53-.91-.02-1.84-.19-2.65-.29-.78-.1-1.47.04-2.25-.06-1.93-.26-3.87-.7-5.73-1.09-3.42-.72-6.66-1.53-9.86-2.77-.78-.28-1.57-.56-2.35-.83-1.29-.72-2.67-1.27-3.92-2.01-2.34-1.38-4.56-3.02-6.81-4.59-.17-.12-.34-.25-.5-.38-.2-.16-.26-.43-.15-.66.15-.28.52-.36.77-.17,1.02.77,2.04,1.53,3.13,2.23,4.77,3.04,10.23,5.46,15.69,6.74,2.55.6,5.09,1.56,7.75,1.96,1.93.29,4.02.37,6.06.25.73-.04,2.1-.49,2.99-.59.43-.05.84-.16,1.23-.34.13-.06.26-.11.39-.17.22-.1.19-.42-.04-.48h0c-.14-.04-.15-.24,0-.28,1.29-.42,2.76-.5,4.12-1.5.72-.54,1.85-1.79,2.97-2.01,1.45-.28,1.63-.61,2.52-.93l.77-.23c.07-.02.21-.09.33-.15l1.97-.92c.23-.11.21-.45-.04-.53l-1.73-.57s-.1-.01-.14,0h0s-.51.23-.51.23c-.26.12-.53.2-.81.24-1.02.15-3.58.26-7.74-1.13-.03,0-.05-.02-.08-.03l-1.64-.56c-.42-.14-.83-.33-1.22-.54l-4.58-2.57c-2.6-1.22-4.85-2.43-5.85-2.98-.27-.15-.33-.52-.11-.75h0c.13-.14.34-.19.51-.12.59.22,7.69,3.89,17.17,5.76l6.64,1.66c.12.02,5.39,1.02,11.7,2.76,4.56,1.26,8.88,3.17,13.3,4.76.88.32,1.93.66,2.83.86.5.11,1.54.29,1.6.31.17.03.23-.05.26-.14.04-.14-.02-.28-.14-.36-.67-.46-1.46-.63-2.12-1.06-.24-.16-.55-.54-.88-.8-.04-.03-.07-.05-.11-.08-.22-.15-.43-.33-.59-.54-.02-.03-.05-.06-.08-.08-.21-.17-.65-.21-.85-.41-.16-.16-.27-.28-.36-.38-.11-.19-.22-.37-.34-.55-.05-.14-.14-.26-.26-.35-.35-.28-.74-.47-1.11-.73-.05-.03-.08-.09-.09-.15,0-.03,0-.05,0-.07-.01-.07,0-.15.05-.21h0c.09-.13.25-.18.39-.12.58.23,1.14.57,1.68.7,1.32.31,2.62.8,3.94,1.06.28.06.74.1,1.11.12.07,0,.14-.04.16-.11.02-.07-.02-.14-.08-.17-.72-.34-1.57-.57-2.29-.8-.45-.15-.88-.44-1.3-.66-1.38-.51-2.76-1.02-4.15-1.53-6.58-2.56-16.8-6.69-20.56-9-5.4-3.31-10.32-8.03-15.21-12.55-.36-.34-.72-.67-1.07-1-.77-.77.25-1.99,1.14-1.37,4.96,3.44,9.8,7.19,14.9,10.13,1.91,1.1,4.19,1.63,6.09,2.69,1.94,1.08,11.85,4.4,13.78,4.79.86.17,1.93.29,2.81.28.57,0,1.15-.26,1.68-.16.1-.04.2-.08.29-.13-.01-.01-.03-.02-.04-.03l.16-.03,3.15-1.65,3.25-2.13s.89-.71.81-.71c0,0-.07-.02-.16-.04-.2-.22-.36-.33-.62-.39-.01-.03-.03-.07-.04-.1,1.02-.3,3.23-.47,4.22-1.28,0,0,0,0,.01,0,.38-.31.14-.92-.34-.9-.85.04-2,0-3.41-.27-1.55-.29-2.24-.52-2.56-.69-.81-.26-1.62-.52-2.42-.71-6.46-1.53-12.3-5.65-17.85-9.53-1.06-.74-2.06-1.61-3.06-2.48-.07-.06-.11-.14-.11-.23,0-.25.26-.4.47-.27,1.28.83,2.56,1.66,3.87,2.45,3.24,1.96,6.68,3.57,9.97,5.41,1.05.59,2.37.82,3.42,1.41.26.15.54.29.81.43,8.16,2.82,13.81,1.72,16.52.77,1.09-.67,3.11-1.74,5.88-2.56,1.81-.53,3.48-.83,4.81-.99l1.43-.21c.16-.02.31-.04.47-.05,2.19-.12,4.85,0,6.29.04.05,0,.1-.03.11-.08.01-.05-.02-.1-.07-.12-.13-.04-.24-.12-.32-.24l-.03-.04c-.39-.54-.24-1.3.33-1.64.35-.21.68-.44,1.01-.69.15-.12.34-.2.57-.2h0c.33-.03,1.39-.52,1.51-.55,1.35-.27,4.05-1.08,5.44-1.29,1.07-.16,7.29-3.08,8.2-2.97.43-.22,2.99-1,4.56-1.31.38-.21.75-.41,1.13-.62.8-.18,1.67-.45,2.54-.77.48-.17.69-.69.46-1.15l-.1-.19c-.1-.19-.29-.32-.5-.34-.4-.04-.8-.07-1.18-.07-.15,0-.34,0-.33-.22,0-.17.12-.32.28-.38,1.02-.39,2.07-.75,3-.94.91-.18,1.91-1.29,2.6-1.26.36-.16.72-.32,1.07-.47-.01-.03-.08-.04-.09-.07-.31.04-.55-.02-.8-.11.02-.05.04-.09.05-.14-.05-.02-.09-.04-.14-.05.28-.11.79-.38,1.35-.68l3.4-1.45c.14-.06,4.23-2.09,4.23-2.09.23-.11,3.58-2.18,3.58-2.18l6.4-4.46s1.59-1.23,1.89-1.48l7.28-5.72c.23-.18.47-.34.73-.47l.14-.08c2.01-1.06,4.19-1.75,6.44-2.04.01,0,.03,0,.04,0,.45-.06.64-.36.98-.43.46-.1,1.25-.1,1.82-.1.54,0,1.13.08,1.72.18l1.69.38c.2.05.41.08.62.1l1.43.13c.25.02.5.02.74,0l.58-.04c.71-.05,1.39-.26,2.01-.61.26-.15.5-.32.72-.51l.53-.46c.06-.05.12-.11.18-.17l1.64-1.56c.09-.08.17-.17.25-.26l.77-.85c.14-.16.3-.31.46-.44l.18-.15c.31-.26.66-.48,1.03-.66l.64-.3s1.7-.92,3.06.33c.42.38.59-.16.53-.29-.6-1.29-2.37-2.12-3.52-2.02h0c-.11.01-3.03-.16-4.24-.13-.34.05-.65-.21-.65-.56,0-.28.22-.52.5-.56l.86-.13c.07-.04.17-.05.17-.05l2.28-.42c2.41-.6,5.35-1.44,6.49-2.92.09-.11.18-.21.3-.3l3.66-4.46s2.7-3.35,3-3.73h0c.01-.21.16-.45.32-.56,1.46-.98,2.76-3.03,3.97-4.02.43-.35,1.43-.68,2.25-1.06.41-.19.78-.4,1.02-.64.09-.07.18-.14.28-.21.14-.1.03-.34-.15-.27-.17.07-.34.14-.48.2-.03.01-.07,0-.08-.03h0s0-.05.01-.07c.96-.89,2.31-1.63,3.34-2.39.41-.21.83-.42,1.24-.63.28-.14.54-.3.79-.5,1.16-.91,2.62-1.62,4.36-2.39.3-.13.6-.26.9-.4.47-.21.96-.35,1.46-.42,1.92-.26,4.18-.29,6.17.02.02,0,.03,0,.05.01l3.23,1.06c.15.05.3.11.44.18.85.45,2.23.81,2.62.9.07.02.13.03.2.04l.42.05c.29.03.58.03.86,0l.76-.08c.11-.01.22-.04.32-.1.85-.46-.85-1.15-1.41-1.35-.06-.02-1.25-.49-1.86-.74,0,0-2.7-1.23-4.92-2.23,0,0-.01-.02-.02-.02-.66-.82-.24-2.06.79-2.31,1.3-.32,2.6-.6,3.83-.83h0c.25-.05.46-.2.58-.42l.08-.14c.26-.47-.1-1.05-.64-1.02-.15,0-.3.02-.46.03-.07,0-.77.11-.91-.39-.13-.5.47-.73.57-.79.1-.06.21-.16.31-.21.1-.04,1.39-.44,1.49-.47.02,0,.21-.06.5-.14,2.61-.71,5.11-1.76,7.44-3.12.03-.02.05-.03.08-.05l5.88-4.47c.33-.25.67-.47,1.03-.68.03-.02.06-.04.08-.06.35-.3.69-.61,1.06-.88l26.07-19.17c.29-.12.58-.25.87-.38.17-.08.28-.25.28-.44,0-.32-.3-.55-.61-.47-.24.06-.48.13-.71.2-.19.06-.38-.08-.38-.28,0-.19.08-.38.24-.5.44-.36.9-.71,1.25-.94h0s0,0,.01-.01l4.08-2.77,4.23-2.2,1.19-.78c.1-.05.2-.12.29-.19,0,0,0,0,0,0l1.93-1.26,4.49-3.18c.08-.05.15-.1.22-.15.01-.01.03-.02.04-.03l2.47-2.25.39-.55s.02-.02.03-.03h0c.17-.11.1-.37-.1-.39-.18-.01-.37,0-.56.05-.05.01-.08-.06-.04-.08.41-.25.91-.61.52-.6-.4,0-.49-.55-.11-.66.46-.14.86-.25,1.06-.28.11-.02.21-.05.31-.09.4-.18.81-.36,1.21-.54.03-.01.05-.05.03-.08,0,0,0,0,0,0-.01-.02-.03-.04-.06-.04-.29,0-.78,0-1.11,0-.1,0-.12-.13-.03-.17,1.27-.54,3.79-1.58,4.22-2.21,0,0,0,0-.01,0-.06-.04-.03-.52.03-.56-.06.11,2.45-2.12,3.21-3.47l.92-1.69s0,0,.01-.02c.03-.04.04-.1.03-.15l-.04-.32c-.01-.1.01-.19.07-.27.02-.03.04-.06.03-.07,0-.02-.09-.01-.13-.02-.03,0-.07,0-.11,0-.63.07-1.25,0-1.91.12-.09.02-.13-.11-.05-.15.22-.1.49-.15.66-.19.86-.19,2.32-1.14,2.68-1.71.03-.05.08-.09.14-.12-.02,0,1.48-1.86-.07-1.69-.06,0-.12,0-.18,0-.15-.02-.34-.01-.54.02-.05,0-.11,0-.16,0-.11-.02-.21-.04-.31-.07-.11-.04-.13-.18-.03-.25.7-.44,1.47-.87,1.86-1.44.02-.03.05-.06.08-.09.08-.07.03-.2-.08-.2-.24,0-.53.16-.82.31,0,0-.01,0-.02,0-.06,0-.08-.08-.04-.12.98-1.03,1.39-1.61,2.07-2.62.07-.11.08-.25.03-.37h0c-.06.04-.13.09-.21.14-.17.11-.4-.03-.37-.23v-.1c.03-.09.05-.17.09-.25.23-.47.42-.96.72-1.41h0c-.02-.05-.08-.07-.13-.04-.03.02-.06.04-.09.06-.14.1-.34-.03-.31-.19,0-.04.02-.07.04-.1.1-.17.19-.35.27-.54.22-.49.58-.91,1.05-1.19.28-.17.59-.28.92-.33,1.21-.19,2.43-.44,3.15-1.4.12-.03.22-.12.26-.23l.19-.47c.23-.57.34-1.18.32-1.8l-.11-3.29Z"/>
</svg>